<mxfile host="app.diagrams.net" modified="2023-01-29T04:20:50.924Z" agent="5.0 (Windows NT 10.0; Win64; x64) AppleWebKit/537.36 (KHTML, like Gecko) Chrome/108.0.0.0 Safari/537.36" etag="6rWQotcuxZ90muIic3Ag" version="20.8.13" type="github">
  <diagram id="C5RBs43oDa-KdzZeNtuy" name="Page-1">
    <mxGraphModel dx="2049" dy="1011" grid="1" gridSize="10" guides="1" tooltips="1" connect="1" arrows="1" fold="1" page="1" pageScale="1" pageWidth="827" pageHeight="1169" math="0" shadow="0">
      <root>
        <mxCell id="WIyWlLk6GJQsqaUBKTNV-0" />
        <mxCell id="WIyWlLk6GJQsqaUBKTNV-1" parent="WIyWlLk6GJQsqaUBKTNV-0" />
        <mxCell id="x3PEgahTLWuq9RQQ5jx8-56" value="" style="verticalLabelPosition=bottom;verticalAlign=top;html=1;shape=mxgraph.basic.rect;fillColor2=none;strokeWidth=1;size=21;indent=5;sketch=0;hachureGap=4;jiggle=2;curveFitting=1;strokeColor=#b85450;fontFamily=Architects Daughter;fontSource=https%3A%2F%2Ffonts.googleapis.com%2Fcss%3Ffamily%3DArchitects%2BDaughter;fontSize=20;dashed=1;fillColor=#FFFFFF;" vertex="1" parent="WIyWlLk6GJQsqaUBKTNV-1">
          <mxGeometry x="925" y="644.25" width="365" height="53" as="geometry" />
        </mxCell>
        <mxCell id="x3PEgahTLWuq9RQQ5jx8-55" value="" style="verticalLabelPosition=bottom;verticalAlign=top;html=1;shape=mxgraph.basic.rect;fillColor2=none;strokeWidth=1;size=21;indent=5;sketch=0;hachureGap=4;jiggle=2;curveFitting=1;strokeColor=#b85450;fontFamily=Architects Daughter;fontSource=https%3A%2F%2Ffonts.googleapis.com%2Fcss%3Ffamily%3DArchitects%2BDaughter;fontSize=20;dashed=1;fillColor=#FFFFFF;" vertex="1" parent="WIyWlLk6GJQsqaUBKTNV-1">
          <mxGeometry x="530" y="769" width="470" height="60" as="geometry" />
        </mxCell>
        <mxCell id="x3PEgahTLWuq9RQQ5jx8-54" value="" style="verticalLabelPosition=bottom;verticalAlign=top;html=1;shape=mxgraph.basic.rect;fillColor2=none;strokeWidth=1;size=21;indent=5;sketch=0;hachureGap=4;jiggle=2;curveFitting=1;strokeColor=#b85450;fontFamily=Architects Daughter;fontSource=https%3A%2F%2Ffonts.googleapis.com%2Fcss%3Ffamily%3DArchitects%2BDaughter;fontSize=20;dashed=1;fillColor=#FFFFFF;" vertex="1" parent="WIyWlLk6GJQsqaUBKTNV-1">
          <mxGeometry x="530" y="700" width="470" height="60" as="geometry" />
        </mxCell>
        <mxCell id="x3PEgahTLWuq9RQQ5jx8-53" value="" style="verticalLabelPosition=bottom;verticalAlign=top;html=1;shape=mxgraph.basic.rect;fillColor2=none;strokeWidth=1;size=21;indent=5;sketch=0;hachureGap=4;jiggle=2;curveFitting=1;strokeColor=#b85450;fontFamily=Architects Daughter;fontSource=https%3A%2F%2Ffonts.googleapis.com%2Fcss%3Ffamily%3DArchitects%2BDaughter;fontSize=20;dashed=1;fillColor=#FFFFFF;" vertex="1" parent="WIyWlLk6GJQsqaUBKTNV-1">
          <mxGeometry x="850" y="566" width="440" height="70" as="geometry" />
        </mxCell>
        <mxCell id="x3PEgahTLWuq9RQQ5jx8-51" value="" style="verticalLabelPosition=bottom;verticalAlign=top;html=1;shape=mxgraph.basic.rect;fillColor2=none;strokeWidth=1;size=21;indent=5;sketch=0;hachureGap=4;jiggle=2;curveFitting=1;strokeColor=#b85450;fontFamily=Architects Daughter;fontSource=https%3A%2F%2Ffonts.googleapis.com%2Fcss%3Ffamily%3DArchitects%2BDaughter;fontSize=20;dashed=1;fillColor=#FFFFFF;" vertex="1" parent="WIyWlLk6GJQsqaUBKTNV-1">
          <mxGeometry x="250" y="150" width="840" height="410" as="geometry" />
        </mxCell>
        <mxCell id="x3PEgahTLWuq9RQQ5jx8-1" value="" style="shape=curlyBracket;whiteSpace=wrap;html=1;rounded=0;labelPosition=left;verticalLabelPosition=middle;align=right;verticalAlign=middle;sketch=0;hachureGap=4;jiggle=2;curveFitting=1;fontFamily=Architects Daughter;fontSource=https%3A%2F%2Ffonts.googleapis.com%2Fcss%3Ffamily%3DArchitects%2BDaughter;fontSize=20;strokeWidth=2;" vertex="1" parent="WIyWlLk6GJQsqaUBKTNV-1">
          <mxGeometry x="200" y="330" width="20" height="470" as="geometry" />
        </mxCell>
        <mxCell id="x3PEgahTLWuq9RQQ5jx8-2" value="GAS" style="whiteSpace=wrap;html=1;fontSize=20;fontFamily=Architects Daughter;align=center;rounded=0;sketch=0;hachureGap=4;jiggle=2;curveFitting=1;fontSource=https%3A%2F%2Ffonts.googleapis.com%2Fcss%3Ffamily%3DArchitects%2BDaughter;fillColor=#ffe6cc;strokeColor=#000000;strokeWidth=2;" vertex="1" parent="WIyWlLk6GJQsqaUBKTNV-1">
          <mxGeometry x="20" y="530" width="150" height="60" as="geometry" />
        </mxCell>
        <mxCell id="x3PEgahTLWuq9RQQ5jx8-14" value="" style="edgeStyle=orthogonalEdgeStyle;rounded=0;hachureGap=4;orthogonalLoop=1;jettySize=auto;html=1;fontFamily=Architects Daughter;fontSource=https%3A%2F%2Ffonts.googleapis.com%2Fcss%3Ffamily%3DArchitects%2BDaughter;fontSize=16;strokeWidth=2;" edge="1" parent="WIyWlLk6GJQsqaUBKTNV-1" source="x3PEgahTLWuq9RQQ5jx8-3" target="x3PEgahTLWuq9RQQ5jx8-13">
          <mxGeometry relative="1" as="geometry" />
        </mxCell>
        <mxCell id="x3PEgahTLWuq9RQQ5jx8-3" value="GameplayAbility" style="whiteSpace=wrap;html=1;fontSize=20;fontFamily=Architects Daughter;align=center;rounded=0;sketch=0;hachureGap=4;jiggle=2;curveFitting=1;fontSource=https%3A%2F%2Ffonts.googleapis.com%2Fcss%3Ffamily%3DArchitects%2BDaughter;fillColor=#ffe6cc;strokeColor=#000000;strokeWidth=2;" vertex="1" parent="WIyWlLk6GJQsqaUBKTNV-1">
          <mxGeometry x="260" y="300" width="230" height="50" as="geometry" />
        </mxCell>
        <mxCell id="x3PEgahTLWuq9RQQ5jx8-4" value="AbilityTask" style="whiteSpace=wrap;html=1;fontSize=20;fontFamily=Architects Daughter;align=center;rounded=0;sketch=0;hachureGap=4;jiggle=2;curveFitting=1;fontSource=https%3A%2F%2Ffonts.googleapis.com%2Fcss%3Ffamily%3DArchitects%2BDaughter;fillColor=#ffe6cc;strokeColor=#000000;strokeWidth=2;" vertex="1" parent="WIyWlLk6GJQsqaUBKTNV-1">
          <mxGeometry x="260" y="613" width="230" height="50" as="geometry" />
        </mxCell>
        <mxCell id="x3PEgahTLWuq9RQQ5jx8-6" value="GameplayTags" style="whiteSpace=wrap;html=1;fontSize=20;fontFamily=Architects Daughter;align=center;rounded=0;sketch=0;hachureGap=4;jiggle=2;curveFitting=1;fontSource=https%3A%2F%2Ffonts.googleapis.com%2Fcss%3Ffamily%3DArchitects%2BDaughter;fillColor=#ffe6cc;strokeColor=#000000;strokeWidth=2;" vertex="1" parent="WIyWlLk6GJQsqaUBKTNV-1">
          <mxGeometry x="260" y="378" width="230" height="50" as="geometry" />
        </mxCell>
        <mxCell id="x3PEgahTLWuq9RQQ5jx8-9" value="GameplayEffect" style="whiteSpace=wrap;html=1;fontSize=20;fontFamily=Architects Daughter;align=center;rounded=0;sketch=0;hachureGap=4;jiggle=2;curveFitting=1;fontSource=https%3A%2F%2Ffonts.googleapis.com%2Fcss%3Ffamily%3DArchitects%2BDaughter;fillColor=#ffe6cc;strokeColor=#000000;strokeWidth=2;" vertex="1" parent="WIyWlLk6GJQsqaUBKTNV-1">
          <mxGeometry x="260" y="457" width="230" height="50" as="geometry" />
        </mxCell>
        <mxCell id="x3PEgahTLWuq9RQQ5jx8-10" value="GameplayCue" style="whiteSpace=wrap;html=1;fontSize=20;fontFamily=Architects Daughter;align=center;rounded=0;sketch=0;hachureGap=4;jiggle=2;curveFitting=1;fontSource=https%3A%2F%2Ffonts.googleapis.com%2Fcss%3Ffamily%3DArchitects%2BDaughter;fillColor=#ffe6cc;strokeColor=#000000;strokeWidth=2;" vertex="1" parent="WIyWlLk6GJQsqaUBKTNV-1">
          <mxGeometry x="260" y="535" width="230" height="50" as="geometry" />
        </mxCell>
        <mxCell id="x3PEgahTLWuq9RQQ5jx8-49" style="edgeStyle=orthogonalEdgeStyle;rounded=0;sketch=0;hachureGap=4;jiggle=2;curveFitting=1;orthogonalLoop=1;jettySize=auto;html=1;exitX=1;exitY=0.5;exitDx=0;exitDy=0;entryX=0;entryY=0.5;entryDx=0;entryDy=0;fontFamily=Architects Daughter;fontSource=https%3A%2F%2Ffonts.googleapis.com%2Fcss%3Ffamily%3DArchitects%2BDaughter;fontSize=16;strokeWidth=2;" edge="1" parent="WIyWlLk6GJQsqaUBKTNV-1" source="x3PEgahTLWuq9RQQ5jx8-11" target="x3PEgahTLWuq9RQQ5jx8-43">
          <mxGeometry relative="1" as="geometry" />
        </mxCell>
        <mxCell id="x3PEgahTLWuq9RQQ5jx8-11" value="GameplayCueManager" style="whiteSpace=wrap;html=1;fontSize=20;fontFamily=Architects Daughter;align=center;rounded=0;sketch=0;hachureGap=4;jiggle=2;curveFitting=1;fontSource=https%3A%2F%2Ffonts.googleapis.com%2Fcss%3Ffamily%3DArchitects%2BDaughter;fillColor=#ffe6cc;strokeColor=#000000;strokeWidth=2;" vertex="1" parent="WIyWlLk6GJQsqaUBKTNV-1">
          <mxGeometry x="260" y="703" width="230" height="50" as="geometry" />
        </mxCell>
        <mxCell id="x3PEgahTLWuq9RQQ5jx8-46" style="edgeStyle=orthogonalEdgeStyle;rounded=0;sketch=0;hachureGap=4;jiggle=2;curveFitting=1;orthogonalLoop=1;jettySize=auto;html=1;exitX=1;exitY=0.5;exitDx=0;exitDy=0;entryX=0;entryY=0.5;entryDx=0;entryDy=0;fontFamily=Architects Daughter;fontSource=https%3A%2F%2Ffonts.googleapis.com%2Fcss%3Ffamily%3DArchitects%2BDaughter;fontSize=16;strokeWidth=2;" edge="1" parent="WIyWlLk6GJQsqaUBKTNV-1" source="x3PEgahTLWuq9RQQ5jx8-12" target="x3PEgahTLWuq9RQQ5jx8-45">
          <mxGeometry relative="1" as="geometry" />
        </mxCell>
        <mxCell id="x3PEgahTLWuq9RQQ5jx8-12" value="NBActor" style="whiteSpace=wrap;html=1;fontSize=20;fontFamily=Architects Daughter;align=center;rounded=0;sketch=0;hachureGap=4;jiggle=2;curveFitting=1;fontSource=https%3A%2F%2Ffonts.googleapis.com%2Fcss%3Ffamily%3DArchitects%2BDaughter;fillColor=#ffe6cc;strokeColor=#000000;strokeWidth=2;" vertex="1" parent="WIyWlLk6GJQsqaUBKTNV-1">
          <mxGeometry x="260" y="770" width="230" height="50" as="geometry" />
        </mxCell>
        <mxCell id="x3PEgahTLWuq9RQQ5jx8-13" value="通用技能模板" style="whiteSpace=wrap;html=1;fontSize=20;fontFamily=Architects Daughter;fillColor=#dae8fc;strokeColor=#000000;rounded=0;sketch=0;hachureGap=4;jiggle=2;curveFitting=1;fontSource=https%3A%2F%2Ffonts.googleapis.com%2Fcss%3Ffamily%3DArchitects%2BDaughter;strokeWidth=2;" vertex="1" parent="WIyWlLk6GJQsqaUBKTNV-1">
          <mxGeometry x="550" y="296.5" width="195" height="55" as="geometry" />
        </mxCell>
        <mxCell id="x3PEgahTLWuq9RQQ5jx8-15" value="放置类" style="whiteSpace=wrap;html=1;fontSize=20;fontFamily=Architects Daughter;fillColor=#dae8fc;strokeColor=#000000;rounded=0;sketch=0;hachureGap=4;jiggle=2;curveFitting=1;fontSource=https%3A%2F%2Ffonts.googleapis.com%2Fcss%3Ffamily%3DArchitects%2BDaughter;aspect=fixed;strokeWidth=2;" vertex="1" parent="WIyWlLk6GJQsqaUBKTNV-1">
          <mxGeometry x="800" y="206.5" width="120" height="60" as="geometry" />
        </mxCell>
        <mxCell id="x3PEgahTLWuq9RQQ5jx8-16" value="目标选择类" style="whiteSpace=wrap;html=1;fontSize=20;fontFamily=Architects Daughter;fillColor=#dae8fc;strokeColor=#000000;rounded=0;sketch=0;hachureGap=4;jiggle=2;curveFitting=1;fontSource=https%3A%2F%2Ffonts.googleapis.com%2Fcss%3Ffamily%3DArchitects%2BDaughter;aspect=fixed;strokeWidth=2;" vertex="1" parent="WIyWlLk6GJQsqaUBKTNV-1">
          <mxGeometry x="800" y="276.5" width="120" height="60" as="geometry" />
        </mxCell>
        <mxCell id="x3PEgahTLWuq9RQQ5jx8-17" value="投掷类" style="whiteSpace=wrap;html=1;fontSize=20;fontFamily=Architects Daughter;fillColor=#dae8fc;strokeColor=#000000;rounded=0;sketch=0;hachureGap=4;jiggle=2;curveFitting=1;fontSource=https%3A%2F%2Ffonts.googleapis.com%2Fcss%3Ffamily%3DArchitects%2BDaughter;strokeWidth=2;" vertex="1" parent="WIyWlLk6GJQsqaUBKTNV-1">
          <mxGeometry x="800" y="342.5" width="120" height="60" as="geometry" />
        </mxCell>
        <mxCell id="x3PEgahTLWuq9RQQ5jx8-19" value="" style="shape=curlyBracket;whiteSpace=wrap;html=1;rounded=0;labelPosition=left;verticalLabelPosition=middle;align=right;verticalAlign=middle;sketch=0;hachureGap=4;jiggle=2;curveFitting=1;strokeColor=#000000;fontFamily=Architects Daughter;fontSource=https%3A%2F%2Ffonts.googleapis.com%2Fcss%3Ffamily%3DArchitects%2BDaughter;fontSize=20;strokeWidth=2;" vertex="1" parent="WIyWlLk6GJQsqaUBKTNV-1">
          <mxGeometry x="760" y="246.5" width="20" height="120" as="geometry" />
        </mxCell>
        <mxCell id="x3PEgahTLWuq9RQQ5jx8-27" value="" style="shape=curlyBracket;whiteSpace=wrap;html=1;rounded=0;flipH=1;labelPosition=right;verticalLabelPosition=middle;align=left;verticalAlign=middle;sketch=0;hachureGap=4;jiggle=2;curveFitting=1;strokeColor=#000000;fontFamily=Architects Daughter;fontSource=https%3A%2F%2Ffonts.googleapis.com%2Fcss%3Ffamily%3DArchitects%2BDaughter;fontSize=20;strokeWidth=2;" vertex="1" parent="WIyWlLk6GJQsqaUBKTNV-1">
          <mxGeometry x="520" y="382" width="20" height="188" as="geometry" />
        </mxCell>
        <mxCell id="x3PEgahTLWuq9RQQ5jx8-32" style="edgeStyle=orthogonalEdgeStyle;rounded=0;sketch=0;hachureGap=4;jiggle=2;curveFitting=1;orthogonalLoop=1;jettySize=auto;html=1;exitX=1;exitY=0.5;exitDx=0;exitDy=0;entryX=0;entryY=0.5;entryDx=0;entryDy=0;fontFamily=Architects Daughter;fontSource=https%3A%2F%2Ffonts.googleapis.com%2Fcss%3Ffamily%3DArchitects%2BDaughter;fontSize=16;strokeWidth=2;" edge="1" parent="WIyWlLk6GJQsqaUBKTNV-1" source="x3PEgahTLWuq9RQQ5jx8-28" target="x3PEgahTLWuq9RQQ5jx8-31">
          <mxGeometry relative="1" as="geometry" />
        </mxCell>
        <mxCell id="x3PEgahTLWuq9RQQ5jx8-28" value="GEBehaviorConfig" style="whiteSpace=wrap;html=1;fontSize=20;fontFamily=Architects Daughter;fillColor=#dae8fc;strokeColor=#000000;rounded=0;sketch=0;hachureGap=4;jiggle=2;curveFitting=1;fontSource=https%3A%2F%2Ffonts.googleapis.com%2Fcss%3Ffamily%3DArchitects%2BDaughter;strokeWidth=2;" vertex="1" parent="WIyWlLk6GJQsqaUBKTNV-1">
          <mxGeometry x="552" y="453.5" width="195" height="55" as="geometry" />
        </mxCell>
        <mxCell id="x3PEgahTLWuq9RQQ5jx8-31" value="通用表现由数据驱动" style="whiteSpace=wrap;html=1;fontSize=20;fontFamily=Architects Daughter;fillColor=#dae8fc;strokeColor=#000000;rounded=0;sketch=0;hachureGap=4;jiggle=2;curveFitting=1;fontSource=https%3A%2F%2Ffonts.googleapis.com%2Fcss%3Ffamily%3DArchitects%2BDaughter;strokeWidth=2;" vertex="1" parent="WIyWlLk6GJQsqaUBKTNV-1">
          <mxGeometry x="790" y="459" width="260" height="42" as="geometry" />
        </mxCell>
        <mxCell id="x3PEgahTLWuq9RQQ5jx8-33" value="" style="shape=curlyBracket;whiteSpace=wrap;html=1;rounded=0;labelPosition=left;verticalLabelPosition=middle;align=right;verticalAlign=middle;sketch=0;hachureGap=4;jiggle=2;curveFitting=1;strokeColor=#000000;fontFamily=Architects Daughter;fontSource=https%3A%2F%2Ffonts.googleapis.com%2Fcss%3Ffamily%3DArchitects%2BDaughter;fontSize=20;strokeWidth=2;" vertex="1" parent="WIyWlLk6GJQsqaUBKTNV-1">
          <mxGeometry x="520" y="594" width="20" height="92" as="geometry" />
        </mxCell>
        <mxCell id="x3PEgahTLWuq9RQQ5jx8-37" value="" style="edgeStyle=orthogonalEdgeStyle;rounded=0;sketch=0;hachureGap=4;jiggle=2;curveFitting=1;orthogonalLoop=1;jettySize=auto;html=1;fontFamily=Architects Daughter;fontSource=https%3A%2F%2Ffonts.googleapis.com%2Fcss%3Ffamily%3DArchitects%2BDaughter;fontSize=16;strokeWidth=2;" edge="1" parent="WIyWlLk6GJQsqaUBKTNV-1" source="x3PEgahTLWuq9RQQ5jx8-34" target="x3PEgahTLWuq9RQQ5jx8-36">
          <mxGeometry relative="1" as="geometry" />
        </mxCell>
        <mxCell id="x3PEgahTLWuq9RQQ5jx8-34" value="AbilityTask_WaitTargetData" style="whiteSpace=wrap;html=1;fontSize=20;fontFamily=Architects Daughter;fillColor=#dae8fc;strokeColor=#000000;rounded=0;sketch=0;hachureGap=4;jiggle=2;curveFitting=1;fontSource=https%3A%2F%2Ffonts.googleapis.com%2Fcss%3Ffamily%3DArchitects%2BDaughter;strokeWidth=2;" vertex="1" parent="WIyWlLk6GJQsqaUBKTNV-1">
          <mxGeometry x="553" y="583" width="280" height="37" as="geometry" />
        </mxCell>
        <mxCell id="x3PEgahTLWuq9RQQ5jx8-39" style="edgeStyle=orthogonalEdgeStyle;rounded=0;sketch=0;hachureGap=4;jiggle=2;curveFitting=1;orthogonalLoop=1;jettySize=auto;html=1;exitX=1;exitY=0.5;exitDx=0;exitDy=0;fontFamily=Architects Daughter;fontSource=https%3A%2F%2Ffonts.googleapis.com%2Fcss%3Ffamily%3DArchitects%2BDaughter;fontSize=16;strokeWidth=2;" edge="1" parent="WIyWlLk6GJQsqaUBKTNV-1" source="x3PEgahTLWuq9RQQ5jx8-35" target="x3PEgahTLWuq9RQQ5jx8-38">
          <mxGeometry relative="1" as="geometry" />
        </mxCell>
        <mxCell id="x3PEgahTLWuq9RQQ5jx8-35" value="AbilityTask_PlayCharacterMontage" style="whiteSpace=wrap;html=1;fontSize=20;fontFamily=Architects Daughter;fillColor=#dae8fc;strokeColor=#000000;rounded=0;sketch=0;hachureGap=4;jiggle=2;curveFitting=1;fontSource=https%3A%2F%2Ffonts.googleapis.com%2Fcss%3Ffamily%3DArchitects%2BDaughter;strokeWidth=2;" vertex="1" parent="WIyWlLk6GJQsqaUBKTNV-1">
          <mxGeometry x="552" y="653" width="340" height="37" as="geometry" />
        </mxCell>
        <mxCell id="x3PEgahTLWuq9RQQ5jx8-36" value="生成物预览逻辑优化" style="whiteSpace=wrap;html=1;fontSize=20;fontFamily=Architects Daughter;fillColor=#dae8fc;strokeColor=#000000;rounded=0;sketch=0;hachureGap=4;jiggle=2;curveFitting=1;fontSource=https%3A%2F%2Ffonts.googleapis.com%2Fcss%3Ffamily%3DArchitects%2BDaughter;strokeWidth=2;" vertex="1" parent="WIyWlLk6GJQsqaUBKTNV-1">
          <mxGeometry x="875" y="579" width="340" height="44" as="geometry" />
        </mxCell>
        <mxCell id="x3PEgahTLWuq9RQQ5jx8-38" value="动画资源检查工具" style="whiteSpace=wrap;html=1;fontSize=20;fontFamily=Architects Daughter;fillColor=#dae8fc;strokeColor=#000000;rounded=0;sketch=0;hachureGap=4;jiggle=2;curveFitting=1;fontSource=https%3A%2F%2Ffonts.googleapis.com%2Fcss%3Ffamily%3DArchitects%2BDaughter;strokeWidth=2;" vertex="1" parent="WIyWlLk6GJQsqaUBKTNV-1">
          <mxGeometry x="935" y="649.5" width="220" height="42.5" as="geometry" />
        </mxCell>
        <mxCell id="x3PEgahTLWuq9RQQ5jx8-43" value="GameplayCue资源加载优化" style="whiteSpace=wrap;html=1;fontSize=20;fontFamily=Architects Daughter;fillColor=#dae8fc;strokeColor=#000000;rounded=0;sketch=0;hachureGap=4;jiggle=2;curveFitting=1;fontSource=https%3A%2F%2Ffonts.googleapis.com%2Fcss%3Ffamily%3DArchitects%2BDaughter;strokeWidth=2;" vertex="1" parent="WIyWlLk6GJQsqaUBKTNV-1">
          <mxGeometry x="555" y="707" width="310" height="44" as="geometry" />
        </mxCell>
        <mxCell id="x3PEgahTLWuq9RQQ5jx8-45" value="生成物交互以及生成方案设计" style="whiteSpace=wrap;html=1;fontSize=20;fontFamily=Architects Daughter;fillColor=#dae8fc;strokeColor=#000000;rounded=0;sketch=0;hachureGap=4;jiggle=2;curveFitting=1;fontSource=https%3A%2F%2Ffonts.googleapis.com%2Fcss%3Ffamily%3DArchitects%2BDaughter;strokeWidth=2;" vertex="1" parent="WIyWlLk6GJQsqaUBKTNV-1">
          <mxGeometry x="560" y="772.5" width="310" height="45" as="geometry" />
        </mxCell>
        <mxCell id="x3PEgahTLWuq9RQQ5jx8-52" value="Text" style="text;strokeColor=none;align=center;fillColor=none;html=1;verticalAlign=middle;whiteSpace=wrap;rounded=0;fontSize=20;fontFamily=Architects Daughter;" vertex="1" parent="WIyWlLk6GJQsqaUBKTNV-1">
          <mxGeometry x="900" y="430" width="60" height="30" as="geometry" />
        </mxCell>
      </root>
    </mxGraphModel>
  </diagram>
</mxfile>
